<svg width="620" height="620" viewBox="0 0 620 620" fill="none" xmlns="http://www.w3.org/2000/svg">
<path d="M499.839 38.75H120.146C75.1931 38.75 38.75 75.1931 38.75 120.146V499.839C38.75 544.802 75.1983 581.25 120.161 581.25H499.839C544.802 581.25 581.25 544.802 581.25 499.839V120.161C581.25 75.1983 544.802 38.75 499.839 38.75ZM247.282 169.686C247.282 169.686 247.277 169.697 247.271 169.699L231.826 170.748C197.38 172.146 195.615 176.697 195.615 189.996V430.073C195.615 443.721 197.38 447.922 231.826 449.673L247.271 450.373C247.271 450.373 247.282 450.378 247.282 450.383V464.987C247.282 464.987 247.277 465 247.269 465H183.492C164.698 465 155 452.925 155 438.035V181.998C155 167.087 164.716 155 183.533 155H247.266C247.266 155 247.282 155.008 247.282 155.015V169.686ZM465 438.035C465 452.928 455.302 465 436.508 465H372.731C372.731 465 372.718 464.995 372.718 464.987V450.316C372.718 450.316 372.723 450.303 372.731 450.303L388.174 449.603C422.62 447.854 424.385 443.651 424.385 430.004V189.927C424.385 176.628 422.62 172.078 388.174 170.678L372.731 169.629C372.731 169.629 372.718 169.622 372.718 169.614V155.013C372.718 155.013 372.723 155 372.731 155H436.467C455.282 155 465 167.087 465 181.998V438.035Z" fill="white"/>
</svg>
